name rise34.3697peak60.0498fall86.3158.mot
datacolumns 19
datarows 36
range 13.63827800000000 13.69661100000000
endheader
time	ground_force1_vx	ground_force1_vy	ground_force1_vz	ground_force1_px	ground_force1_py	ground_force1_pz	ground_force2_vx	ground_force2_vy	ground_force2_vz	ground_force2_px	ground_force2_py	ground_force2_pz	ground_torque1_x	ground_torque1_y	ground_torque1_z	ground_torque2_x	ground_torque2_y	ground_torque2_z	
13.63827800000000	50.87144000000000	754.29991500000006	50.65121500000000	0.43361400000000	0.00000000000000	0.11436800000000	0.00000000000000	0.00000000000000	0.00000000000000	0.00000000000000	0.00000000000000	0.00000000000000	0.00000000000000	30.62750500000000	0.00000000000000	0.00000000000000	0.00000000000000	0.00000000000000	
13.63994600000000	50.19891200000000	757.71782399999995	50.86108900000000	0.43175500000000	0.00000000000000	0.11439600000000	0.00000000000000	0.00000000000000	0.00000000000000	0.00000000000000	0.00000000000000	0.00000000000000	0.00000000000000	30.77337400000000	0.00000000000000	0.00000000000000	0.00000000000000	0.00000000000000	
13.64161700000000	49.53445400000000	761.02456500000005	51.07198700000000	0.42992000000000	0.00000000000000	0.11442300000000	0.00000000000000	0.00000000000000	0.00000000000000	0.00000000000000	0.00000000000000	0.00000000000000	0.00000000000000	30.91918100000000	0.00000000000000	0.00000000000000	0.00000000000000	0.00000000000000	
13.64328000000000	48.87861500000000	764.21678199999997	51.28342100000000	0.42811300000000	0.00000000000000	0.11445000000000	0.00000000000000	0.00000000000000	0.00000000000000	0.00000000000000	0.00000000000000	0.00000000000000	0.00000000000000	31.06462600000000	0.00000000000000	0.00000000000000	0.00000000000000	0.00000000000000	
13.64495200000000	48.23185000000000	767.29116199999999	51.49482600000000	0.42633500000000	0.00000000000000	0.11447500000000	0.00000000000000	0.00000000000000	0.00000000000000	0.00000000000000	0.00000000000000	0.00000000000000	0.00000000000000	31.20935700000000	0.00000000000000	0.00000000000000	0.00000000000000	0.00000000000000	
13.64661000000000	47.59452000000000	770.24445400000002	51.70556700000000	0.42458800000000	0.00000000000000	0.11449900000000	0.00000000000000	0.00000000000000	0.00000000000000	0.00000000000000	0.00000000000000	0.00000000000000	0.00000000000000	31.35297900000000	0.00000000000000	0.00000000000000	0.00000000000000	0.00000000000000	
13.64828300000000	46.96689400000000	773.07348999999999	51.91494300000000	0.42287500000000	0.00000000000000	0.11452200000000	0.00000000000000	0.00000000000000	0.00000000000000	0.00000000000000	0.00000000000000	0.00000000000000	0.00000000000000	31.49505600000000	0.00000000000000	0.00000000000000	0.00000000000000	0.00000000000000	
13.64994400000000	46.34915500000000	775.77520700000002	52.12219500000000	0.42119600000000	0.00000000000000	0.11454400000000	0.00000000000000	0.00000000000000	0.00000000000000	0.00000000000000	0.00000000000000	0.00000000000000	0.00000000000000	31.63511400000000	0.00000000000000	0.00000000000000	0.00000000000000	0.00000000000000	
13.65161500000000	45.74140200000000	778.34665900000005	52.32651100000000	0.41955300000000	0.00000000000000	0.11456400000000	0.00000000000000	0.00000000000000	0.00000000000000	0.00000000000000	0.00000000000000	0.00000000000000	0.00000000000000	31.77264900000000	0.00000000000000	0.00000000000000	0.00000000000000	0.00000000000000	
13.65328500000000	45.14365200000000	780.78504099999998	52.52703600000000	0.41794800000000	0.00000000000000	0.11458200000000	0.00000000000000	0.00000000000000	0.00000000000000	0.00000000000000	0.00000000000000	0.00000000000000	0.00000000000000	31.90713100000000	0.00000000000000	0.00000000000000	0.00000000000000	0.00000000000000	
13.65494400000000	44.55584600000000	783.08770600000003	52.72287700000000	0.41638200000000	0.00000000000000	0.11459800000000	0.00000000000000	0.00000000000000	0.00000000000000	0.00000000000000	0.00000000000000	0.00000000000000	0.00000000000000	32.03800700000000	0.00000000000000	0.00000000000000	0.00000000000000	0.00000000000000	
13.65661300000000	43.97785500000000	785.25218199999995	52.91311000000000	0.41485500000000	0.00000000000000	0.11461200000000	0.00000000000000	0.00000000000000	0.00000000000000	0.00000000000000	0.00000000000000	0.00000000000000	0.00000000000000	32.16471000000000	0.00000000000000	0.00000000000000	0.00000000000000	0.00000000000000	
13.65828000000000	43.40948200000000	787.27618500000005	53.09678900000000	0.41337000000000	0.00000000000000	0.11462300000000	0.00000000000000	0.00000000000000	0.00000000000000	0.00000000000000	0.00000000000000	0.00000000000000	0.00000000000000	32.28665700000000	0.00000000000000	0.00000000000000	0.00000000000000	0.00000000000000	
13.65995200000000	42.85046600000000	789.15764000000001	53.27295500000000	0.41192500000000	0.00000000000000	0.11463200000000	0.00000000000000	0.00000000000000	0.00000000000000	0.00000000000000	0.00000000000000	0.00000000000000	0.00000000000000	32.40326300000000	0.00000000000000	0.00000000000000	0.00000000000000	0.00000000000000	
13.66161800000000	42.30049000000000	790.89469299999996	53.44064000000000	0.41052300000000	0.00000000000000	0.11463800000000	0.00000000000000	0.00000000000000	0.00000000000000	0.00000000000000	0.00000000000000	0.00000000000000	0.00000000000000	32.51393700000000	0.00000000000000	0.00000000000000	0.00000000000000	0.00000000000000	
13.66328300000000	41.75918500000000	792.48572200000001	53.59887600000000	0.40916300000000	0.00000000000000	0.11464200000000	0.00000000000000	0.00000000000000	0.00000000000000	0.00000000000000	0.00000000000000	0.00000000000000	0.00000000000000	32.61809400000000	0.00000000000000	0.00000000000000	0.00000000000000	0.00000000000000	
13.66494500000000	41.22613600000000	793.92935399999999	53.74670400000000	0.40784600000000	0.00000000000000	0.11464300000000	0.00000000000000	0.00000000000000	0.00000000000000	0.00000000000000	0.00000000000000	0.00000000000000	0.00000000000000	32.71515200000000	0.00000000000000	0.00000000000000	0.00000000000000	0.00000000000000	
13.66661300000000	40.70088400000000	795.22447099999999	53.88318100000000	0.40657100000000	0.00000000000000	0.11464100000000	0.00000000000000	0.00000000000000	0.00000000000000	0.00000000000000	0.00000000000000	0.00000000000000	0.00000000000000	32.80454400000000	0.00000000000000	0.00000000000000	0.00000000000000	0.00000000000000	
13.66828400000000	40.18293600000000	796.37022600000000	54.00738600000000	0.40533900000000	0.00000000000000	0.11463500000000	0.00000000000000	0.00000000000000	0.00000000000000	0.00000000000000	0.00000000000000	0.00000000000000	0.00000000000000	32.88571800000000	0.00000000000000	0.00000000000000	0.00000000000000	0.00000000000000	
13.66995600000000	39.67176700000000	797.36604599999998	54.11842600000000	0.40415000000000	0.00000000000000	0.11462700000000	0.00000000000000	0.00000000000000	0.00000000000000	0.00000000000000	0.00000000000000	0.00000000000000	0.00000000000000	32.95814100000000	0.00000000000000	0.00000000000000	0.00000000000000	0.00000000000000	
13.67161900000000	39.16682700000000	798.21164199999998	54.21544600000000	0.40300400000000	0.00000000000000	0.11461500000000	0.00000000000000	0.00000000000000	0.00000000000000	0.00000000000000	0.00000000000000	0.00000000000000	0.00000000000000	33.02130500000000	0.00000000000000	0.00000000000000	0.00000000000000	0.00000000000000	
13.67328400000000	38.66754900000000	798.90701500000000	54.29763300000000	0.40189900000000	0.00000000000000	0.11460000000000	0.00000000000000	0.00000000000000	0.00000000000000	0.00000000000000	0.00000000000000	0.00000000000000	0.00000000000000	33.07472600000000	0.00000000000000	0.00000000000000	0.00000000000000	0.00000000000000	
13.67495000000000	38.17334900000000	799.45246199999997	54.36422200000000	0.40083600000000	0.00000000000000	0.11458200000000	0.00000000000000	0.00000000000000	0.00000000000000	0.00000000000000	0.00000000000000	0.00000000000000	0.00000000000000	33.11795500000000	0.00000000000000	0.00000000000000	0.00000000000000	0.00000000000000	
13.67661500000000	37.68363400000000	799.84857599999998	54.41450200000000	0.39981400000000	0.00000000000000	0.11456000000000	0.00000000000000	0.00000000000000	0.00000000000000	0.00000000000000	0.00000000000000	0.00000000000000	0.00000000000000	33.15057200000000	0.00000000000000	0.00000000000000	0.00000000000000	0.00000000000000	
13.67828300000000	37.19780900000000	800.09625100000005	54.44782100000000	0.39883200000000	0.00000000000000	0.11453400000000	0.00000000000000	0.00000000000000	0.00000000000000	0.00000000000000	0.00000000000000	0.00000000000000	0.00000000000000	33.17219800000000	0.00000000000000	0.00000000000000	0.00000000000000	0.00000000000000	
13.67994700000000	36.71528000000000	800.19668100000001	54.46359200000000	0.39788900000000	0.00000000000000	0.11450500000000	0.00000000000000	0.00000000000000	0.00000000000000	0.00000000000000	0.00000000000000	0.00000000000000	0.00000000000000	33.18248700000000	0.00000000000000	0.00000000000000	0.00000000000000	0.00000000000000	
13.68162300000000	36.23545900000000	800.15135999999995	54.46129500000000	0.39698400000000	0.00000000000000	0.11447300000000	0.00000000000000	0.00000000000000	0.00000000000000	0.00000000000000	0.00000000000000	0.00000000000000	0.00000000000000	33.18114000000000	0.00000000000000	0.00000000000000	0.00000000000000	0.00000000000000	
13.68329900000000	35.75776900000000	799.96208100000001	54.44048300000000	0.39611600000000	0.00000000000000	0.11443700000000	0.00000000000000	0.00000000000000	0.00000000000000	0.00000000000000	0.00000000000000	0.00000000000000	0.00000000000000	33.16789700000000	0.00000000000000	0.00000000000000	0.00000000000000	0.00000000000000	
13.68495100000000	35.28165000000000	799.63093000000003	54.40078200000000	0.39528300000000	0.00000000000000	0.11439700000000	0.00000000000000	0.00000000000000	0.00000000000000	0.00000000000000	0.00000000000000	0.00000000000000	0.00000000000000	33.14254500000000	0.00000000000000	0.00000000000000	0.00000000000000	0.00000000000000	
13.68661600000000	34.80656200000000	799.16028400000005	54.34189800000000	0.39448500000000	0.00000000000000	0.11435400000000	0.00000000000000	0.00000000000000	0.00000000000000	0.00000000000000	0.00000000000000	0.00000000000000	0.00000000000000	33.10491500000000	0.00000000000000	0.00000000000000	0.00000000000000	0.00000000000000	
13.68827700000000	34.33198600000000	798.55280300000004	54.26361700000000	0.39372100000000	0.00000000000000	0.11430700000000	0.00000000000000	0.00000000000000	0.00000000000000	0.00000000000000	0.00000000000000	0.00000000000000	0.00000000000000	33.05488700000000	0.00000000000000	0.00000000000000	0.00000000000000	0.00000000000000	
13.68994900000000	33.85743400000000	797.81142599999998	54.16580600000000	0.39298700000000	0.00000000000000	0.11425700000000	0.00000000000000	0.00000000000000	0.00000000000000	0.00000000000000	0.00000000000000	0.00000000000000	0.00000000000000	32.99238700000000	0.00000000000000	0.00000000000000	0.00000000000000	0.00000000000000	
13.69161500000000	33.38244900000000	796.93935799999997	54.04841500000000	0.39228400000000	0.00000000000000	0.11420300000000	0.00000000000000	0.00000000000000	0.00000000000000	0.00000000000000	0.00000000000000	0.00000000000000	0.00000000000000	32.91739300000000	0.00000000000000	0.00000000000000	0.00000000000000	0.00000000000000	
13.69327900000000	32.90660600000000	795.94006800000000	53.91147600000000	0.39160800000000	0.00000000000000	0.11414600000000	0.00000000000000	0.00000000000000	0.00000000000000	0.00000000000000	0.00000000000000	0.00000000000000	0.00000000000000	32.82992900000000	0.00000000000000	0.00000000000000	0.00000000000000	0.00000000000000	
13.69495200000000	32.42952000000000	794.81726900000001	53.75510800000000	0.39095900000000	0.00000000000000	0.11408600000000	0.00000000000000	0.00000000000000	0.00000000000000	0.00000000000000	0.00000000000000	0.00000000000000	0.00000000000000	32.73006800000000	0.00000000000000	0.00000000000000	0.00000000000000	0.00000000000000	
13.69661100000000	31.95084200000000	793.57491600000003	53.57950900000000	0.39033500000000	0.00000000000000	0.11402200000000	0.00000000000000	0.00000000000000	0.00000000000000	0.00000000000000	0.00000000000000	0.00000000000000	0.00000000000000	32.61793300000000	0.00000000000000	0.00000000000000	0.00000000000000	0.00000000000000	
